<?xml version="1.0" encoding="UTF-8"?>
<svg xmlns="http://www.w3.org/2000/svg" xmlns:xlink="http://www.w3.org/1999/xlink" width="20px" height="18px" viewBox="0 0 19 18" version="1.1">
<g id="surface1">
<path style=" stroke:none;fill-rule:nonzero;fill:rgb(100%,100%,100%);fill-opacity:1;" d="M 9.585938 1.03125 C 8.539062 1.382812 7.628906 2.089844 7.074219 2.984375 C 6.625 3.691406 6.625 3.691406 6.285156 3.449219 C 5.714844 3.054688 4.523438 3.140625 3.84375 3.605469 C 3.273438 3.988281 2.730469 4.867188 2.730469 5.390625 C 2.730469 5.574219 2.566406 5.769531 2.28125 5.914062 C -0.269531 7.257812 -0.324219 10.964844 2.1875 12.394531 C 2.878906 12.789062 3.054688 12.816406 4.710938 12.875 C 6.761719 12.945312 7.210938 12.875 7.210938 12.492188 C 7.210938 12.238281 7.058594 12.222656 5.144531 12.167969 C 3.328125 12.125 3 12.082031 2.5 11.8125 C 0.476562 10.679688 0.449219 7.824219 2.460938 6.5625 C 3.109375 6.167969 3.21875 6.027344 3.367188 5.460938 C 3.734375 3.972656 4.96875 3.4375 6.246094 4.226562 C 6.816406 4.582031 6.871094 4.582031 6.992188 4.339844 C 7.902344 2.742188 8.6875 2.007812 9.882812 1.640625 C 12.460938 0.859375 15.027344 2.828125 15.148438 5.671875 L 15.175781 6.605469 L 15.910156 6.789062 C 16.832031 7.03125 17.484375 7.539062 17.808594 8.289062 C 18.472656 9.804688 17.699219 11.617188 16.191406 12.054688 C 15.921875 12.125 14.824219 12.195312 13.765625 12.195312 C 11.945312 12.195312 11.824219 12.210938 11.824219 12.464844 C 11.824219 12.847656 12.066406 12.902344 13.859375 12.902344 C 15.855469 12.902344 16.695312 12.71875 17.429688 12.140625 C 18.308594 11.445312 18.675781 10.640625 18.664062 9.4375 C 18.664062 8.8125 18.582031 8.289062 18.445312 8.019531 C 18.050781 7.257812 17.25 6.550781 16.492188 6.292969 C 16.097656 6.167969 15.800781 6.011719 15.839844 5.953125 C 15.867188 5.898438 15.8125 5.390625 15.703125 4.824219 C 15.324219 2.96875 14.117188 1.566406 12.40625 1.015625 C 11.320312 0.664062 10.640625 0.664062 9.585938 1.03125 Z M 9.585938 1.03125 "/>
<path style=" stroke:none;fill-rule:nonzero;fill:rgb(100%,100%,100%);fill-opacity:1;" d="M 9.339844 8.742188 C 9.285156 8.800781 9.246094 10.398438 9.246094 12.292969 C 9.246094 14.191406 9.203125 15.734375 9.148438 15.734375 C 9.09375 15.734375 8.769531 15.4375 8.417969 15.082031 C 7.996094 14.644531 7.699219 14.445312 7.5625 14.503906 C 7.167969 14.65625 7.332031 14.941406 8.429688 16.085938 L 9.515625 17.21875 L 10.601562 16.085938 C 11.699219 14.941406 11.863281 14.65625 11.46875 14.503906 C 11.335938 14.445312 11.035156 14.644531 10.617188 15.082031 C 10.261719 15.4375 9.9375 15.734375 9.882812 15.734375 C 9.828125 15.734375 9.773438 14.164062 9.761719 12.238281 C 9.71875 8.941406 9.664062 8.417969 9.339844 8.742188 Z M 9.339844 8.742188 "/>
</g>
</svg>
