<?xml version="1.0" encoding="UTF-8"?>
<svg xmlns="http://www.w3.org/2000/svg" xmlns:xlink="http://www.w3.org/1999/xlink" width="14px" height="14px" viewBox="0 0 14 14" version="1.1">
<g id="surface1">
<path style=" stroke:none;fill-rule:nonzero;fill:rgb(0%,0%,0%);fill-opacity:1;" d="M 13.710938 0.269531 C 13.519531 0.078125 13.285156 0 13.015625 0 L 3.574219 0 C 3.015625 0 2.523438 0.398438 2.523438 0.960938 L 2.523438 1.820312 C 2.523438 2.382812 3.015625 2.90625 3.574219 2.90625 L 9.125 2.90625 L 0.308594 11.6875 C 0.117188 11.878906 0.0078125 12.121094 0.0078125 12.390625 C 0.0078125 12.664062 0.117188 12.910156 0.308594 13.101562 L 0.917969 13.707031 C 1.105469 13.898438 1.359375 14 1.632812 14 C 1.90625 14 2.132812 13.894531 2.324219 13.703125 L 11.085938 4.914062 L 11.085938 10.398438 C 11.085938 10.957031 11.597656 11.46875 12.160156 11.46875 L 13.019531 11.46875 C 13.578125 11.46875 13.992188 10.957031 13.992188 10.398438 L 13.992188 0.964844 C 13.992188 0.691406 13.90625 0.464844 13.710938 0.269531 Z M 13.710938 0.269531 "/>
</g>
</svg>
