<?xml version="1.0" encoding="UTF-8"?>
<svg xmlns="http://www.w3.org/2000/svg" xmlns:xlink="http://www.w3.org/1999/xlink" width="18px" height="18px" viewBox="0 0 18 18" version="1.1">
<g id="surface1">
<path style=" stroke:none;fill-rule:nonzero;fill:rgb(0%,0%,0%);fill-opacity:1;" d="M 9 0.441406 C 4.039062 0.441406 0 3.746094 0 7.8125 C 0 10.207031 1.390625 12.417969 3.746094 13.800781 C 3.421875 15.328125 2.6875 16.402344 2.679688 16.414062 L 1.878906 17.558594 L 3.269531 17.382812 C 3.429688 17.359375 7.152344 16.867188 9.808594 15.152344 C 11.988281 14.996094 14.011719 14.195312 15.527344 12.890625 C 17.121094 11.519531 18 9.714844 18 7.8125 C 18 3.746094 13.960938 0.441406 9 0.441406 Z M 9.570312 13.925781 L 9.398438 13.9375 L 9.257812 14.03125 C 7.714844 15.070312 5.648438 15.644531 4.347656 15.925781 C 4.621094 15.316406 4.90625 14.503906 5.050781 13.570312 L 5.117188 13.132812 L 4.726562 12.925781 C 2.542969 11.78125 1.238281 9.871094 1.238281 7.8125 C 1.238281 4.429688 4.722656 1.679688 9 1.679688 C 13.277344 1.679688 16.761719 4.429688 16.761719 7.8125 C 16.761719 11.007812 13.601562 13.695312 9.570312 13.925781 Z M 9.570312 13.925781 "/>
</g>
</svg>
